<svg width="40" height="40" viewBox="0 0 40 40" fill="none" xmlns="http://www.w3.org/2000/svg">
<path d="M1.96826 20C3.53493 11.4667 11.0133 5 19.9999 5C28.9866 5 36.4633 11.4667 38.0316 20C36.4649 28.5333 28.9866 35 19.9999 35C11.0133 35 3.5366 28.5333 1.96826 20ZM19.9999 28.3333C22.2101 28.3333 24.3297 27.4554 25.8925 25.8926C27.4553 24.3298 28.3333 22.2101 28.3333 20C28.3333 17.7899 27.4553 15.6702 25.8925 14.1074C24.3297 12.5446 22.2101 11.6667 19.9999 11.6667C17.7898 11.6667 15.6702 12.5446 14.1074 14.1074C12.5446 15.6702 11.6666 17.7899 11.6666 20C11.6666 22.2101 12.5446 24.3298 14.1074 25.8926C15.6702 27.4554 17.7898 28.3333 19.9999 28.3333ZM19.9999 25C18.6738 25 17.4021 24.4732 16.4644 23.5355C15.5267 22.5979 14.9999 21.3261 14.9999 20C14.9999 18.6739 15.5267 17.4021 16.4644 16.4645C17.4021 15.5268 18.6738 15 19.9999 15C21.326 15 22.5978 15.5268 23.5355 16.4645C24.4731 17.4021 24.9999 18.6739 24.9999 20C24.9999 21.3261 24.4731 22.5979 23.5355 23.5355C22.5978 24.4732 21.326 25 19.9999 25Z" fill="white"/>
</svg>
